<svg width="134" height="134" viewBox="0 0 134 134" fill="none" xmlns="http://www.w3.org/2000/svg">
<path d="M17.2222 88.3333L78.1746 27.381M17.2222 88.3333L9.09524 112.714M17.2222 88.3333L31.4444 90.3651M78.1746 27.381L88.3333 17.2222M78.1746 27.381L86.3016 35.5079M88.3333 17.2222L102.556 3L131 31.4444L116.778 45.6667M88.3333 17.2222L116.778 45.6667M116.778 45.6667L106.619 55.8254M106.619 55.8254L45.6667 116.778M106.619 55.8254L98.4921 47.6984M45.6667 116.778L21.2857 124.905M45.6667 116.778L41.6032 102.556M21.2857 124.905L3 131L9.09524 112.714M21.2857 124.905L17.2222 116.778L9.09524 112.714M41.6032 102.556H31.4444V90.3651M41.6032 102.556L98.4921 47.6984M31.4444 90.3651L86.3016 35.5079M86.3016 35.5079L98.4921 47.6984" stroke="white" stroke-width="5"/>
</svg>
